<svg width="850" height="550" viewBox="0 0 850 550" fill="none" xmlns="http://www.w3.org/2000/svg">
<rect width="850" height="550" fill="#F5F5F5"/>
<g id="Custom" clip-path="url(#clip0_0_1)">
<rect width="850" height="550" fill="white"/>
<g id="logo">
<g id="outter">
<mask id="mask0_0_1" style="mask-type:alpha" maskUnits="userSpaceOnUse" x="268" y="76" width="310" height="311">
<g id="mask0_0_1">
<path id="outter-line" d="M552 237.503C556.5 144.003 424 46.5029 335 137.003C233.796 239.912 336.5 366.503 424 361.503" stroke="#F47520" stroke-width="50"/>
</g>
</mask>
<g mask="url(#mask0_0_1)">
<g id="Group">
<path id="outter-mask" d="M420.591 361.664C338.942 364.322 277.72 299.609 277.239 225.389C276.743 148.425 339.797 86.522 415.732 87.0029C489.228 87.4737 554.606 148.435 551.959 229.474C546.482 170.745 499.23 125.001 441.981 120.268C373.546 114.608 320.777 163.982 311.828 221.207C306.417 255.784 314.207 287.317 335.662 315.004C357.087 342.644 385.714 357.801 420.591 361.659V361.664Z" fill="#F47520"/>
</g>
</g>
</g>
<g id="inner">
<mask id="mask1_0_1" style="mask-type:alpha" maskUnits="userSpaceOnUse" x="341" y="151" width="194" height="194">
<g id="mask1_0_1">
<path id="inner-mask" d="M482.406 162.23C463.739 170.861 453.273 185.238 454.27 206.025C455.176 224.892 465.238 238.556 483.008 245.031C502.641 252.184 519.49 246.494 533.252 231.154C539.655 261.959 528.596 307.759 485.67 331.957C443.347 355.816 390.689 344.385 361.703 306.432C332.565 268.282 336.34 215.117 368.394 181.533C402.376 145.934 451.678 145.326 482.406 162.23Z" fill="#F47520"/>
</g>
</mask>
<g mask="url(#mask1_0_1)">
<g id="Group_2">
<path id="inner-line" d="M601 26.5024C467.5 71.0024 368 141.002 407.5 243.002C445.064 340.002 613.5 264.502 682.5 229.502" stroke="#F47520" stroke-width="201"/>
</g>
</g>
</g>
<path id="eyemask-1" d="M75 103L300 309C293.5 158.5 375.5 100 507 110.5L314.5 -86L75 103Z" fill="#D9D9D9"/>
<path id="eyemask-2" d="M239 171L327.5 326L439 247L572.5 196.5L529 30L239 171Z" fill="#D9D9D9"/>
</g>
<g id="crunchyroll">
<path id="l2" d="M575.97 413.384C575.97 420.542 575.939 427.695 575.995 434.853C576.005 436.24 575.636 436.802 574.178 436.696C572.624 436.58 571.05 436.747 569.501 436.615C569.086 436.58 568.666 435.952 568.368 435.516C568.216 435.294 568.337 434.889 568.337 434.565C568.337 420.415 568.362 406.266 568.302 392.116C568.297 390.517 568.661 389.843 570.352 390.036C571.571 390.172 572.832 390.157 574.062 390.036C575.544 389.894 576.01 390.421 576 391.919C575.934 399.072 575.97 406.23 575.97 413.389V413.384Z" fill="#F47520"/>
<path id="l1" d="M558.24 436.666C555.922 436.666 553.882 436.625 551.842 436.681C550.81 436.706 550.562 436.24 550.572 435.314C550.602 432.14 550.582 428.966 550.582 425.792C550.582 414.548 550.617 403.299 550.541 392.056C550.531 390.37 551.042 389.879 552.647 390.031C554.034 390.162 555.446 390.107 556.843 390.041C557.921 389.99 558.28 390.461 558.25 391.468C558.209 392.759 558.245 394.05 558.245 395.341C558.245 408.524 558.245 421.706 558.245 434.889V436.661L558.24 436.666Z" fill="#F47520"/>
<path id="o" d="M541.583 428.465C540.237 432.54 537.255 435.182 533.141 436.458C529.243 437.668 525.3 437.688 521.398 436.569C516.276 435.101 513.234 431.548 511.954 426.49C510.729 421.656 510.785 416.811 512.384 412.042C514.206 406.6 518.954 402.904 524.688 402.707C527.138 402.621 529.673 402.651 532.047 403.178C538.146 404.519 541.411 408.716 542.56 414.669C543.359 420.425 542.383 426.394 541.583 428.47V428.465ZM535.028 415.915C534.472 411.743 532.655 409.536 528.985 409.035C523.995 408.352 520.396 409.784 519.556 414.634C519.075 417.403 518.842 420.329 519.166 423.103C519.834 428.794 521.424 430.383 526.136 430.955C527.128 431.077 528.165 430.889 529.172 430.788C531.582 430.545 533.399 429.31 534.107 427.012C534.811 424.734 535.206 417.241 535.028 415.915Z" fill="#F47520"/>
<path id="r2" d="M490.074 436.666C490.033 436.063 489.982 435.643 489.982 435.223C489.982 426.126 489.977 417.023 489.982 407.926C489.982 405.471 490.367 404.661 492.716 404.028C495.231 403.35 497.858 403.021 500.449 402.682C502.206 402.449 503.992 402.439 505.764 402.368C506.867 402.322 507.449 402.778 507.363 404.013C507.272 405.299 507.302 406.6 507.358 407.886C507.399 408.858 507.034 409.202 506.052 409.217C504.174 409.253 502.292 409.344 500.429 409.556C498.273 409.804 497.676 410.559 497.676 412.725C497.676 420.101 497.64 427.477 497.701 434.853C497.711 436.235 497.377 436.797 495.904 436.701C494.031 436.58 492.144 436.671 490.068 436.671L490.074 436.666Z" fill="#F47520"/>
<path id="y" d="M483.782 402.99C481.257 409.779 478.883 416.234 476.458 422.663C473.214 431.259 469.909 439.835 466.685 448.436C466.26 449.565 465.703 450.046 464.463 449.99C462.383 449.894 460.293 449.965 457.954 449.965C459.123 447.104 460.206 444.492 461.259 441.87C462.16 439.627 463.704 437.384 463.734 435.127C463.765 432.869 462.297 430.586 461.447 428.328C458.47 420.436 455.479 412.543 452.498 404.651C452.331 404.211 452.199 403.76 451.956 403.026C454.634 403.026 457.134 402.975 459.624 403.087C459.948 403.102 460.348 403.927 460.515 404.443C462.687 411.08 464.817 417.732 466.968 424.379C467.191 425.068 467.47 425.736 468.092 426.419C468.543 425.063 469.008 423.711 469.438 422.349C471.286 416.512 473.158 410.68 474.93 404.818C475.36 403.39 476.018 402.834 477.547 402.95C479.516 403.102 481.505 402.985 483.777 402.985L483.782 402.99Z" fill="#F47520"/>
<path id="h" d="M424.904 403.603C428.927 402.353 432.769 402.226 436.605 403.011C442.517 404.216 446.445 408.787 446.576 414.837C446.723 421.615 446.622 428.399 446.672 435.182C446.683 436.286 446.323 436.736 445.179 436.681C443.62 436.605 442.057 436.6 440.498 436.681C439.328 436.742 439.035 436.256 439.045 435.167C439.08 428.87 439.065 422.572 439.06 416.274C439.06 411.774 437.618 410.022 433.068 409.541C430.972 409.318 428.811 409.617 426.69 409.764C425.349 409.855 424.858 410.584 424.873 412.027C424.954 419.615 424.873 427.209 424.944 434.798C424.959 436.296 424.539 436.817 423.041 436.691C421.543 436.569 420.024 436.62 418.521 436.676C417.519 436.711 417.064 436.433 417.069 435.329C417.094 420.689 417.094 406.048 417.069 391.403C417.069 390.314 417.489 390 418.506 390.036C420.121 390.097 421.74 390.112 423.35 390.036C424.534 389.975 424.964 390.355 424.939 391.585C424.868 394.977 424.914 398.368 424.914 401.76C424.914 402.292 424.914 402.823 424.914 403.608L424.904 403.603Z" fill="#F47520"/>
<path id="c2" d="M409.386 410.544C407.422 410.128 405.615 409.627 403.778 409.399C402.133 409.197 400.432 409.116 398.797 409.313C394.571 409.825 392.602 411.521 391.929 415.738C391.504 418.4 391.428 421.225 391.818 423.883C392.511 428.571 395.138 430.727 399.916 430.697C402.512 430.682 405.109 430.064 407.7 429.69C408.166 429.624 408.611 429.426 409.365 429.204C409.365 431.203 409.411 433.056 409.32 434.899C409.305 435.223 408.773 435.673 408.393 435.81C403.519 437.557 398.549 438.002 393.543 436.488C388.963 435.101 386.038 431.942 384.716 427.411C383.193 422.182 383.178 416.902 384.99 411.723C386.883 406.311 391.615 402.925 397.324 402.636C400.953 402.454 404.506 402.656 407.978 403.856C409.001 404.21 409.477 404.676 409.411 405.805C409.32 407.349 409.391 408.908 409.391 410.544H409.386Z" fill="#F47520"/>
<path id="n" d="M348.842 421.767C348.842 417.515 348.907 413.257 348.816 409.005C348.761 406.418 349.98 404.783 352.258 403.947C353.807 403.38 355.462 402.829 357.087 402.793C361.1 402.697 365.17 402.54 369.133 403.071C374.346 403.77 377.595 407.764 377.696 413.055C377.833 420.431 377.772 427.811 377.833 435.187C377.843 436.286 377.489 436.752 376.34 436.686C374.943 436.61 373.536 436.59 372.139 436.686C370.793 436.782 370.352 436.286 370.363 434.949C370.413 428.864 370.393 422.779 370.378 416.694C370.378 415.783 370.317 414.867 370.231 413.956C369.993 411.414 368.966 409.961 366.415 409.708C363.727 409.44 360.979 409.683 358.266 409.87C356.894 409.967 356.343 410.913 356.353 412.356C356.403 419.894 356.343 427.437 356.403 434.975C356.413 436.342 355.978 436.782 354.652 436.691C353.205 436.59 351.742 436.605 350.289 436.691C349.125 436.757 348.811 436.281 348.821 435.182C348.867 430.712 348.842 426.242 348.842 421.772V421.767Z" fill="#F47520"/>
<path id="u" d="M318.873 414.462C318.873 417.585 318.848 420.709 318.884 423.832C318.929 427.933 321.111 430.09 325.2 430.14C325.524 430.14 325.848 430.14 326.172 430.14C331.021 430.125 333.025 428.166 333.055 423.281C333.091 417.089 333.101 410.893 333.04 404.702C333.03 403.355 333.45 402.884 334.796 402.97C336.406 403.072 338.026 403.026 339.645 402.985C340.561 402.96 340.88 403.34 340.865 404.231C340.738 411.495 340.819 418.765 340.48 426.019C340.192 432.231 336.214 436.347 330.003 436.949C326.84 437.253 323.555 437.172 320.422 436.671C315.371 435.861 312.587 432.428 311.737 427.508C311.317 425.083 311.145 422.597 311.104 420.132C311.013 414.963 311.114 409.789 311.049 404.621C311.033 403.335 311.433 402.889 312.714 402.97C314.268 403.066 315.842 403.046 317.401 402.97C318.519 402.92 318.919 403.299 318.899 404.443C318.838 407.78 318.879 411.121 318.879 414.462H318.873Z" fill="#F47520"/>
<path id="r1" d="M287.645 436.666C287.604 436.063 287.554 435.643 287.554 435.223C287.554 426.126 287.549 417.023 287.554 407.926C287.554 405.471 287.938 404.661 290.287 404.028C292.802 403.35 295.429 403.021 298.021 402.682C299.777 402.449 301.564 402.439 303.335 402.368C304.438 402.322 305.021 402.778 304.934 404.013C304.843 405.299 304.874 406.6 304.929 407.886C304.97 408.858 304.606 409.202 303.624 409.217C301.746 409.253 299.863 409.344 298 409.556C295.844 409.804 295.247 410.559 295.247 412.725C295.247 420.101 295.212 427.477 295.272 434.853C295.283 436.235 294.948 436.797 293.476 436.701C291.603 436.58 289.715 436.671 287.64 436.671L287.645 436.666Z" fill="#F47520"/>
<path id="c1" d="M278.636 410.25C275.634 409.891 272.734 409.308 269.819 409.248C264.1 409.136 261.25 411.9 261.037 417.616C260.946 420.01 261.017 422.455 261.417 424.815C261.969 428.09 264.186 429.892 267.415 430.49C270.684 431.092 273.822 430.55 276.96 429.725C277.472 429.588 277.968 429.416 278.656 429.199C278.656 431.158 278.707 432.98 278.61 434.793C278.59 435.162 278.079 435.694 277.684 435.83C272.967 437.486 268.144 437.952 263.29 436.585C259.033 435.385 256.017 432.631 254.508 428.47C252.519 422.982 252.524 417.383 254.351 411.865C256.153 406.408 260.228 403.471 265.775 402.732C269.571 402.226 273.382 402.525 277.082 403.75C278.221 404.125 278.772 404.59 278.661 405.881C278.529 407.42 278.631 408.974 278.631 410.25H278.636Z" fill="#F47520"/>
</g>
<g id="stars">
<path id="star1" d="M554 163.849C558.385 161.441 561.892 156.925 563.938 150C565.4 156.323 569.785 162.344 573 163.849C570.369 166.258 565.692 171.677 563.938 178C561.6 171.677 558.092 166.86 554 163.849Z" fill="#F47520"/>
<path id="star2" d="M564 126C571.5 122 577.5 114.5 581 103C583.5 113.5 591 123.5 596.5 126C592 130 584 139 581 149.5C577 139 571 131 564 126Z" fill="#F47520"/>
<path id="star3" d="M588 163.118C599.308 157.011 608.354 145.559 613.631 128C617.4 144.032 628.708 159.301 637 163.118C630.215 169.226 618.154 182.968 613.631 199C607.6 182.968 598.554 170.753 588 163.118Z" fill="#F47520"/>
</g>
<path id="blink-0" d="M420.355 361.664C338.706 364.322 277.484 299.609 277.003 225.389C276.507 148.425 339.561 86.5219 415.497 87.0028C488.992 87.4736 554.37 148.435 551.723 229.474C546.246 170.745 498.994 125.001 441.745 120.268C373.31 114.608 320.541 163.982 311.592 221.207C308.725 239.533 309.565 257.004 314.182 273.5C318.277 288.129 325.342 301.991 335.426 315.004C356.851 342.644 385.478 357.801 420.355 361.659V361.664Z" fill="#F47520"/>
<path id="blink-1" d="M439 186.35C471.343 168.497 506.09 160.53 533.5 158.5C488.014 143.009 451.293 143.265 422.5 153.715C395.861 163.383 376.008 181.777 362.277 204.5C338.156 244.419 332.929 297.698 343 340.5C344.787 318.412 349.237 298.829 355.729 281.5C362.473 263.496 371.421 247.923 381.872 234.5C398.148 213.596 418.071 197.903 439 186.35Z" fill="#F47520"/>
<path id="blink-2" d="M343.5 340.5C388.5 244.5 458 186.5 550 211.5C480.5 228.5 378 276 343.5 340.5Z" fill="#F47520"/>
<path id="blink-3" d="M550.5 228.5C481 257.5 409 300 344.5 341.5C371.895 335.671 412.031 322.028 455.5 297.799C486.608 280.46 519.424 257.699 550.5 228.5Z" fill="#F47520"/>
<path id="blink-4" d="M348.5 344.5C437 355 520.607 320.5 552.5 230.5C549.918 262.959 541.592 288.706 529.193 308.5C517.466 327.222 502.097 340.617 484.5 349.328C445.045 368.859 394.393 364.839 348.5 344.5Z" fill="#F47520"/>
</g>
<defs>
<clipPath id="clip0_0_1">
<rect width="850" height="550" fill="white"/>
</clipPath>
</defs>
</svg>
