<svg width="850" height="550" viewBox="0 0 850 550" fill="none" xmlns="http://www.w3.org/2000/svg">
<rect width="850" height="550" fill="#F5F5F5"/>
<g id="Found">
<rect width="850" height="550" fill="white"/>
<path id="uhlive-e" d="M606.783 324.996C625.118 324.81 643.637 316.08 649.749 293.974L626.5 284.5C626.5 284.5 617.895 298.5 607.524 298.5H605.857C595.487 298.5 591.5 291.5 591 288.5L649 278C649 266.352 640.5 231 605.857 231C587.894 231 559.373 239.545 559.003 276.884C558.633 318.68 592.153 325.182 606.783 324.996ZM588 268.5C588.556 259.955 594.5 255.5 602.5 254.383C608 253.615 616 258.5 616 263.5L588 268.5Z" fill="black"/>
<rect id="uhlive-v-base" x="497" y="293.222" width="29" height="29" fill="black"/>
<path id="uhlive-v-left" d="M461 235.222L496 235.222L526 322.222L497 322.222L461 235.222Z" fill="black"/>
<path id="uhlive-v-right" d="M561.644 235.443L526.644 235.443L497 322.5L525.644 322.443L561.644 235.443Z" fill="black"/>
<path id="uhlive-i" d="M442 321.5L442 235" stroke="black" stroke-width="30"/>
<path id="uhlive-l" d="M402 285L402 198.5" stroke="black" stroke-width="30"/>
<path id="uhlive-h-shoulder" d="M342.5 236C332.488 236 324 238 319 244V272.5C319 263 326.5 263 331 263C335.5 263 342.5 264.5 342.5 272.5V320.5H375V267.5C375 246 354 236 342.5 236Z" fill="black"/>
<path id="h-mask" d="M320 223.5V276H335.5V332H384V223.5H320Z" fill="#22FF53"/>
<path id="uhlive-h-stem" d="M305 322L305 204" stroke="black" stroke-width="30" stroke-miterlimit="1"/>
<path id="uhlive-u" d="M212 235C212 250.121 212 271.783 212 280.855C212 298.605 224.702 306.598 239.743 306.988C255.215 307.388 268 298.112 268 280.855C268 271.487 268 251.6 268 235" stroke="black" stroke-width="30" stroke-miterlimit="1"/>
<path id="bubble-I" d="M456 213C456 217.088 456 228 456 228C456 228 445.196 228 441 228C432.716 228 426 221.284 426 213C426 204.716 432.716 198 441 198C449.284 198 456 204.716 456 213Z" fill="black"/>
<path id="bubble-L" d="M387 306C387 310.088 387 321 387 321C387 321 397.804 321 402 321C410.284 321 417 314.284 417 306C417 297.716 410.284 291 402 291C393.716 291 387 297.716 387 306Z" fill="black"/>
<path id="humans-s" d="M520 355.489C520.395 358.191 522.373 360.151 526.357 360.151C530.19 360.151 532.349 358.221 532.349 355.578C532.349 353.351 531.406 351.837 526.722 350.738C523.893 350.085 523.255 349.521 523.255 348.392C523.255 347.413 523.924 346.403 526.083 346.403C528.425 346.403 529.186 347.769 529.429 348.719H531.984C531.802 346.641 530.159 344.384 526.175 344.384C522.22 344.384 520.608 346.492 520.608 348.6C520.608 350.649 521.521 351.985 525.931 353.024C528.882 353.707 529.581 354.361 529.581 355.786C529.581 357.152 528.699 358.102 526.448 358.102C524.35 358.102 523.103 357.122 522.677 355.489H520Z" fill="black"/>
<path id="humans-n" d="M503.03 359.794H505.707V351.837C505.707 348.808 506.863 346.641 509.783 346.641C512.125 346.641 513.038 348.155 513.038 350.441V359.794H515.714V350.115C515.714 346.106 513.463 344.384 510.543 344.384C507.563 344.384 506.315 345.928 505.707 347.205C505.707 346.759 505.677 345.186 505.585 344.74H503C503.03 345.898 503.03 347.234 503.03 348.541V359.794Z" fill="black"/>
<path id="humans-a" d="M497.562 349.313C497.562 345.898 495.463 344.384 491.692 344.384C487.251 344.384 485.943 346.759 485.73 348.838H488.315C488.589 347.68 489.045 346.433 491.6 346.433C494.49 346.433 494.916 348.036 494.916 349.372V350.649H492.3C487.707 350.649 485 352.193 485 355.548C485 357.835 486.551 360.151 490.201 360.151C493.182 360.151 494.429 358.814 494.977 357.835C495.007 358.755 495.098 359.468 495.22 359.794H497.775C497.684 359.349 497.562 357.894 497.562 356.498V349.313ZM494.946 352.935C494.946 355.667 494.46 358.102 490.749 358.102C488.832 358.102 487.738 356.973 487.738 355.4C487.738 353.292 489.38 352.46 492.452 352.46H494.946V352.935Z" fill="black"/>
<path id="humans-m" d="M458.03 359.794H460.677V351.451C460.677 348.6 461.863 346.641 464.327 346.641C466.76 346.641 467.308 348.363 467.308 350.293V359.794H469.923V351.154C469.923 348.481 471.018 346.641 473.543 346.641C475.946 346.641 476.585 348.481 476.585 350.204V359.794H479.2V349.907C479.2 345.839 476.858 344.384 474.334 344.384C471.718 344.384 470.258 345.661 469.437 347.086C468.828 345.453 467.338 344.384 465.148 344.384C462.715 344.384 461.376 345.72 460.677 347.056C460.677 346.284 460.616 345.186 460.555 344.74H458C458.03 345.958 458.03 347.323 458.03 348.63V359.794Z" fill="black"/>
<path id="humans-u" d="M452.44 345H449.764V352.839C449.764 356.61 448.669 358.154 445.84 358.154C443.285 358.154 442.646 356.313 442.646 354.353V345H440V354.888C440 359.134 442.494 360.41 445.11 360.41C447.543 360.41 449.003 359.46 449.764 357.797C449.794 358.748 449.825 359.668 449.885 360.054H452.471C452.471 359.163 452.44 357.144 452.44 355.66V345Z" fill="black"/>
<path id="humans-h" d="M422 338V359.794H424.677V351.569C424.677 348.422 425.893 346.641 428.661 346.641C430.912 346.641 432.007 348.066 432.007 350.619V359.794H434.684V350.174C434.684 345.69 431.946 344.384 429.483 344.384C426.867 344.384 425.437 345.631 424.677 346.967V338H422Z" fill="black"/>
<path id="understanding-g" d="M405.809 349.075C405.809 347.65 405.84 345.601 405.84 344.74H403.345C403.315 345.037 403.224 346.047 403.193 346.73C402.859 345.72 401.612 344.384 398.661 344.384C394.95 344.384 392 347.383 392 352.282C392 356.706 394.585 359.735 398.387 359.735C400.973 359.735 402.372 358.755 403.193 357.092V358.31C403.193 361.754 402.342 363.922 398.844 363.922C396.867 363.922 395.498 363.06 395.042 361.398H392.335C392.608 363.446 394.038 366 398.722 366C403.771 366 405.809 363.268 405.809 358.428V349.075ZM394.768 352.163C394.768 348.927 396.228 346.581 399.087 346.581C402.372 346.581 403.285 348.6 403.285 351.985C403.285 355.311 402.311 357.508 398.996 357.508C396.471 357.508 394.768 355.34 394.768 352.163Z" fill="black"/>
<path id="understanding-n3" d="M375.03 359.794H377.707V351.837C377.707 348.808 378.863 346.641 381.783 346.641C384.125 346.641 385.038 348.155 385.038 350.441V359.794H387.714V350.115C387.714 346.106 385.463 344.384 382.543 344.384C379.563 344.384 378.315 345.928 377.707 347.205C377.707 346.759 377.677 345.186 377.585 344.74H375C375.03 345.898 375.03 347.234 375.03 348.541V359.794Z" fill="black"/>
<g id="understanding-i">
<path d="M366 359.794H368.677V344.74H366V359.794Z" fill="black"/>
<path d="M369.5 340C369.5 341.105 368.605 342 367.5 342C366.395 342 365.5 341.105 365.5 340C365.5 338.895 366.395 338 367.5 338C368.605 338 369.5 338.895 369.5 340Z" fill="black"/>
</g>
<path id="understanding-d2" d="M356.254 338V346.314C355.859 345.453 354.642 344.384 351.905 344.384C347.646 344.384 345 347.799 345 352.431C345 357.003 347.433 360.151 351.418 360.151C353.942 360.151 355.494 359.23 356.254 357.656C356.254 358.25 356.315 359.408 356.406 359.794H358.961C358.931 358.339 358.931 356.944 358.931 355.548V338H356.254ZM347.768 352.341C347.768 348.689 349.441 346.581 352.178 346.581C355.646 346.581 356.376 348.689 356.376 352.045C356.376 355.34 355.555 357.953 351.965 357.953C349.532 357.953 347.768 355.964 347.768 352.341Z" fill="black"/>
<path id="understanding-n2" d="M328.03 359.794H330.707V351.837C330.707 348.808 331.863 346.641 334.783 346.641C337.125 346.641 338.038 348.155 338.038 350.441V359.794H340.714V350.115C340.714 346.106 338.463 344.384 335.543 344.384C332.563 344.384 331.315 345.928 330.707 347.205C330.707 346.759 330.677 345.186 330.585 344.74H328C328.03 345.898 328.03 347.234 328.03 348.541V359.794Z" fill="black"/>
<path id="understanding-a" d="M322.562 349.313C322.562 345.898 320.463 344.384 316.692 344.384C312.251 344.384 310.943 346.759 310.73 348.838H313.315C313.589 347.68 314.045 346.433 316.6 346.433C319.49 346.433 319.916 348.036 319.916 349.372V350.649H317.3C312.707 350.649 310 352.193 310 355.548C310 357.835 311.551 360.151 315.201 360.151C318.182 360.151 319.429 358.814 319.977 357.835C320.007 358.755 320.098 359.468 320.22 359.794H322.775C322.684 359.349 322.562 357.894 322.562 356.498V349.313ZM319.946 352.935C319.946 355.667 319.46 358.102 315.749 358.102C313.833 358.102 312.738 356.973 312.738 355.4C312.738 353.292 314.38 352.46 317.452 352.46H319.946V352.935Z" fill="black"/>
<path id="understanding-t" d="M297 346.848H299.677V356.291C299.677 358.785 300.711 360.002 303.114 360.002C303.874 360.002 304.787 359.972 305.425 359.735V357.775C305 357.864 304.452 357.894 304.087 357.894C302.688 357.894 302.323 357.152 302.323 355.667V346.848H305.73V344.74H302.323V340.286H299.677V344.74H297V346.848Z" fill="black"/>
<path id="understanding-s" d="M282 355.489C282.395 358.191 284.373 360.151 288.357 360.151C292.19 360.151 294.349 358.221 294.349 355.578C294.349 353.351 293.406 351.837 288.722 350.738C285.893 350.085 285.255 349.521 285.255 348.392C285.255 347.413 285.924 346.403 288.083 346.403C290.425 346.403 291.186 347.769 291.429 348.719H293.984C293.802 346.641 292.159 344.384 288.175 344.384C284.22 344.384 282.608 346.492 282.608 348.6C282.608 350.649 283.521 351.985 287.931 353.024C290.882 353.707 291.581 354.361 291.581 355.786C291.581 357.152 290.699 358.102 288.448 358.102C286.35 358.102 285.103 357.122 284.677 355.489H282Z" fill="black"/>
<path id="understanding-r" d="M271.03 359.794H273.707V352.49C273.707 348.689 275.715 347.056 278.878 346.967V344.384C276.323 344.443 274.498 345.779 273.707 347.799C273.707 346.344 273.646 345.156 273.616 344.74H271C271 345.542 271.03 346.73 271.03 348.838V359.794Z" fill="black"/>
<path id="understanding-e" d="M265.566 352.727C265.596 352.341 265.596 351.955 265.596 351.48C265.596 348.274 263.984 344.384 258.996 344.384C254.312 344.384 252 347.947 252 352.431C252 356.291 253.977 360.151 258.813 360.151C263.041 360.151 264.714 357.567 265.323 355.637H262.615C262.129 356.736 261.338 357.983 258.905 357.983C256.289 357.983 254.707 355.786 254.677 352.727H265.566ZM254.768 350.916C255.042 348.274 256.228 346.433 258.965 346.433C261.581 346.433 262.859 348.422 262.889 350.916H254.768Z" fill="black"/>
<path id="understanding-d1" d="M243.254 338V346.314C242.859 345.453 241.642 344.384 238.905 344.384C234.646 344.384 232 347.799 232 352.431C232 357.003 234.433 360.151 238.418 360.151C240.943 360.151 242.494 359.23 243.254 357.656C243.254 358.25 243.315 359.408 243.406 359.794H245.961C245.931 358.339 245.931 356.944 245.931 355.548V338H243.254ZM234.768 352.341C234.768 348.689 236.441 346.581 239.178 346.581C242.646 346.581 243.376 348.689 243.376 352.045C243.376 355.34 242.555 357.953 238.965 357.953C236.532 357.953 234.768 355.964 234.768 352.341Z" fill="black"/>
<path id="understanding-n1" d="M215.03 359.794H217.707V351.837C217.707 348.808 218.863 346.641 221.783 346.641C224.125 346.641 225.038 348.155 225.038 350.441V359.794H227.714V350.115C227.714 346.106 225.463 344.384 222.543 344.384C219.563 344.384 218.315 345.928 217.707 347.205C217.707 346.759 217.677 345.186 217.585 344.74H215C215.03 345.898 215.03 347.234 215.03 348.541V359.794Z" fill="black"/>
<path id="understanding-u" d="M208.44 344.74H205.764V352.579C205.764 356.35 204.669 357.894 201.84 357.894C199.285 357.894 198.646 356.053 198.646 354.093V344.74H196V354.628C196 358.874 198.494 360.151 201.11 360.151C203.543 360.151 205.003 359.2 205.764 357.538C205.794 358.488 205.825 359.408 205.885 359.794H208.471C208.471 358.903 208.44 356.884 208.44 355.4V344.74Z" fill="black"/>
<rect id="dash" x="546" y="350" width="28" height="2" fill="black"/>
<g id="live!-!">
<path d="M640.064 352.784L642.688 341.936L643.52 338H640.704L639.872 341.904L637.856 352.784H640.064Z" fill="black"/>
<path d="M640 358C640 359.105 639.105 360 638 360C636.895 360 636 359.105 636 358C636 356.895 636.895 356 638 356C639.105 356 640 356.895 640 358Z" fill="black"/>
</g>
<path id="live!-e" d="M632.93 352.776C633.218 351.688 633.346 350.76 633.346 349.736C633.346 346.792 631.906 343.944 627.554 343.944C621.538 343.944 619.042 349.8 619.042 354.376C619.042 358.12 620.93 360.808 624.994 360.808C629.218 360.808 631.202 358.44 632.258 355.912H629.506C628.77 357.288 627.682 358.6 625.314 358.6C623.042 358.6 621.73 357.064 621.73 354.312C621.73 353.768 621.794 353.416 621.858 352.776H632.93ZM622.306 350.76C623.138 347.784 624.93 346.088 627.394 346.088C629.73 346.088 630.754 347.368 630.754 349.576C630.754 349.96 630.754 350.344 630.658 350.76H622.306Z" fill="black"/>
<path id="live!-v" d="M604.656 344.264L606.736 360.488H609.84L618.928 344.264H616.144C614.064 348.2 609.52 356.264 608.784 357.992H608.752C608.656 355.912 608.144 351.272 607.28 344.264H604.656Z" fill="black"/>
<g id="live!-i">
<path d="M595.562 360.488H598.187L601.643 344.264H598.987L595.562 360.488Z" fill="black"/>
<path d="M603 339C603 340.105 602.105 341 601 341C599.895 341 599 340.105 599 339C599 337.895 599.895 337 601 337C602.105 337 603 337.895 603 339Z" fill="black"/>
</g>
<path id="live!-l" d="M590.624 360.488L595.616 337H592.96L588 360.488H590.624Z" fill="black"/>
<path id="copyright-circle" fill-rule="evenodd" clip-rule="evenodd" d="M649.5 238C653.09 238 656 235.09 656 231.5C656 227.91 653.09 225 649.5 225C645.91 225 643 227.91 643 231.5C643 235.09 645.91 238 649.5 238ZM649.5 240C654.194 240 658 236.194 658 231.5C658 226.806 654.194 223 649.5 223C644.806 223 641 226.806 641 231.5C641 236.194 644.806 240 649.5 240Z" fill="black"/>
<path id="copyright-r" d="M648.576 227.432C649.352 227.432 649.992 227.528 650.496 227.72C651 227.904 651.376 228.188 651.624 228.572C651.872 228.948 651.996 229.424 651.996 230C651.996 230.392 651.92 230.736 651.768 231.032C651.624 231.32 651.428 231.568 651.18 231.776C650.94 231.976 650.68 232.14 650.4 232.268L652.92 236H650.904L648.864 232.712H647.892V236H646.08V227.432H648.576ZM648.444 228.92H647.892V231.236H648.48C648.88 231.236 649.204 231.192 649.452 231.104C649.7 231.016 649.88 230.884 649.992 230.708C650.104 230.524 650.16 230.304 650.16 230.048C650.16 229.776 650.096 229.56 649.968 229.4C649.848 229.232 649.66 229.112 649.404 229.04C649.156 228.96 648.836 228.92 648.444 228.92Z" fill="black"/>
<circle id="dot1" cx="402" cy="306" r="15" fill="black"/>
<circle id="dot2" cx="402" cy="306" r="15" fill="black"/>
</g>
</svg>
