<svg width="700" height="500" viewBox="0 0 700 500" fill="none" xmlns="http://www.w3.org/2000/svg">
<rect width="700" height="500" fill="white"/>
<rect x="150" y="200" width="400" height="100" rx="20" fill="black"/>
<path d="M219.468 223C218.1 223 217 224.108 217 225.484C217 226.861 218.1 227.969 219.468 227.969H224.825L231.025 260.731C231.251 261.901 232.269 262.75 233.452 262.75H267.178C268.545 262.75 269.645 261.642 269.645 260.266C269.645 258.889 268.545 257.781 267.178 257.781H235.498L234.562 252.812H267.157C268.627 252.812 269.923 251.829 270.324 250.401L275.876 230.526C276.463 228.414 274.889 226.312 272.71 226.312H229.544L229.298 225.019C229.071 223.849 228.053 223 226.871 223H219.468ZM235.097 276C237.822 276 240.032 273.774 240.032 271.031C240.032 268.288 237.822 266.062 235.097 266.062C232.372 266.062 230.161 268.288 230.161 271.031C230.161 273.774 232.372 276 235.097 276ZM269.645 271.031C269.645 268.288 267.435 266.062 264.71 266.062C261.985 266.062 259.774 268.288 259.774 271.031C259.774 273.774 261.985 276 264.71 276C267.435 276 269.645 273.774 269.645 271.031Z" fill="white"/>
<path d="M317.432 252.56L321.304 241.904H321.368L325.176 252.56H317.432ZM319.704 239.152L310.808 262H313.912L316.472 255.12H326.136L328.632 262H331.992L323.064 239.152H319.704Z" fill="white"/>
<path d="M335.782 253.872C335.782 253.061 335.867 252.272 336.038 251.504C336.209 250.736 336.486 250.053 336.87 249.456C337.254 248.859 337.766 248.379 338.406 248.016C339.046 247.653 339.825 247.472 340.742 247.472C341.681 247.472 342.481 247.653 343.142 248.016C343.803 248.357 344.337 248.816 344.742 249.392C345.169 249.968 345.478 250.64 345.67 251.408C345.862 252.155 345.958 252.933 345.958 253.744C345.958 254.512 345.862 255.269 345.67 256.016C345.499 256.763 345.211 257.435 344.806 258.032C344.401 258.608 343.878 259.077 343.238 259.44C342.598 259.803 341.819 259.984 340.902 259.984C340.027 259.984 339.259 259.813 338.598 259.472C337.958 259.131 337.425 258.672 336.998 258.096C336.593 257.52 336.283 256.869 336.07 256.144C335.878 255.397 335.782 254.64 335.782 253.872ZM348.582 262V239.152H345.862V247.664H345.798C345.499 247.173 345.126 246.768 344.678 246.448C344.251 246.107 343.793 245.84 343.302 245.648C342.811 245.435 342.321 245.285 341.83 245.2C341.339 245.115 340.881 245.072 340.454 245.072C339.195 245.072 338.086 245.307 337.126 245.776C336.187 246.224 335.398 246.843 334.758 247.632C334.139 248.4 333.67 249.307 333.35 250.352C333.051 251.397 332.902 252.507 332.902 253.68C332.902 254.853 333.062 255.963 333.382 257.008C333.702 258.053 334.171 258.971 334.79 259.76C335.43 260.549 336.219 261.179 337.158 261.648C338.118 262.117 339.238 262.352 340.518 262.352C341.67 262.352 342.726 262.149 343.686 261.744C344.646 261.339 345.35 260.677 345.798 259.76H345.862V262H348.582Z" fill="white"/>
<path d="M354.751 253.872C354.751 253.061 354.836 252.272 355.007 251.504C355.177 250.736 355.455 250.053 355.839 249.456C356.223 248.859 356.735 248.379 357.375 248.016C358.015 247.653 358.793 247.472 359.711 247.472C360.649 247.472 361.449 247.653 362.111 248.016C362.772 248.357 363.305 248.816 363.711 249.392C364.137 249.968 364.447 250.64 364.639 251.408C364.831 252.155 364.927 252.933 364.927 253.744C364.927 254.512 364.831 255.269 364.639 256.016C364.468 256.763 364.18 257.435 363.775 258.032C363.369 258.608 362.847 259.077 362.207 259.44C361.567 259.803 360.788 259.984 359.871 259.984C358.996 259.984 358.228 259.813 357.567 259.472C356.927 259.131 356.393 258.672 355.967 258.096C355.561 257.52 355.252 256.869 355.039 256.144C354.847 255.397 354.751 254.64 354.751 253.872ZM367.551 262V239.152H364.831V247.664H364.767C364.468 247.173 364.095 246.768 363.647 246.448C363.22 246.107 362.761 245.84 362.271 245.648C361.78 245.435 361.289 245.285 360.799 245.2C360.308 245.115 359.849 245.072 359.423 245.072C358.164 245.072 357.055 245.307 356.095 245.776C355.156 246.224 354.367 246.843 353.727 247.632C353.108 248.4 352.639 249.307 352.319 250.352C352.02 251.397 351.871 252.507 351.871 253.68C351.871 254.853 352.031 255.963 352.351 257.008C352.671 258.053 353.14 258.971 353.759 259.76C354.399 260.549 355.188 261.179 356.127 261.648C357.087 262.117 358.207 262.352 359.487 262.352C360.639 262.352 361.695 262.149 362.655 261.744C363.615 261.339 364.319 260.677 364.767 259.76H364.831V262H367.551Z" fill="white"/>
<path d="M384.418 245.456V240.496H381.698V245.456H378.882V247.856H381.698V258.384C381.698 259.152 381.772 259.771 381.922 260.24C382.071 260.709 382.295 261.072 382.594 261.328C382.914 261.584 383.319 261.765 383.81 261.872C384.322 261.957 384.93 262 385.634 262H387.714V259.6H386.466C386.039 259.6 385.687 259.589 385.41 259.568C385.154 259.525 384.951 259.451 384.802 259.344C384.652 259.237 384.546 259.088 384.482 258.896C384.439 258.704 384.418 258.448 384.418 258.128V247.856H387.714V245.456H384.418Z" fill="white"/>
<path d="M392.72 253.744C392.72 252.741 392.848 251.856 393.104 251.088C393.381 250.299 393.754 249.637 394.224 249.104C394.693 248.571 395.237 248.165 395.856 247.888C396.496 247.611 397.168 247.472 397.872 247.472C398.576 247.472 399.237 247.611 399.856 247.888C400.496 248.165 401.05 248.571 401.52 249.104C401.989 249.637 402.352 250.299 402.608 251.088C402.885 251.856 403.024 252.741 403.024 253.744C403.024 254.747 402.885 255.643 402.608 256.432C402.352 257.2 401.989 257.851 401.52 258.384C401.05 258.896 400.496 259.291 399.856 259.568C399.237 259.845 398.576 259.984 397.872 259.984C397.168 259.984 396.496 259.845 395.856 259.568C395.237 259.291 394.693 258.896 394.224 258.384C393.754 257.851 393.381 257.2 393.104 256.432C392.848 255.643 392.72 254.747 392.72 253.744ZM389.84 253.744C389.84 254.96 390.01 256.091 390.352 257.136C390.693 258.181 391.205 259.099 391.888 259.888C392.57 260.656 393.413 261.264 394.416 261.712C395.418 262.139 396.57 262.352 397.872 262.352C399.194 262.352 400.346 262.139 401.328 261.712C402.33 261.264 403.173 260.656 403.856 259.888C404.538 259.099 405.05 258.181 405.392 257.136C405.733 256.091 405.904 254.96 405.904 253.744C405.904 252.528 405.733 251.397 405.392 250.352C405.05 249.285 404.538 248.368 403.856 247.6C403.173 246.811 402.33 246.192 401.328 245.744C400.346 245.296 399.194 245.072 397.872 245.072C396.57 245.072 395.418 245.296 394.416 245.744C393.413 246.192 392.57 246.811 391.888 247.6C391.205 248.368 390.693 249.285 390.352 250.352C390.01 251.397 389.84 252.528 389.84 253.744Z" fill="white"/>
<path d="M429.249 250.768H432.065C431.958 249.787 431.702 248.944 431.297 248.24C430.891 247.515 430.369 246.917 429.729 246.448C429.11 245.979 428.385 245.637 427.553 245.424C426.742 245.189 425.867 245.072 424.929 245.072C423.627 245.072 422.486 245.307 421.505 245.776C420.523 246.224 419.702 246.853 419.041 247.664C418.401 248.453 417.921 249.392 417.601 250.48C417.281 251.547 417.121 252.699 417.121 253.936C417.121 255.173 417.281 256.315 417.601 257.36C417.942 258.384 418.433 259.269 419.073 260.016C419.734 260.763 420.545 261.339 421.505 261.744C422.486 262.149 423.606 262.352 424.865 262.352C426.977 262.352 428.641 261.797 429.857 260.688C431.094 259.579 431.862 258 432.161 255.952H429.377C429.206 257.232 428.737 258.224 427.969 258.928C427.222 259.632 426.177 259.984 424.833 259.984C423.979 259.984 423.243 259.813 422.625 259.472C422.006 259.131 421.505 258.683 421.121 258.128C420.737 257.552 420.449 256.901 420.257 256.176C420.086 255.451 420.001 254.704 420.001 253.936C420.001 253.104 420.086 252.304 420.257 251.536C420.427 250.747 420.705 250.053 421.089 249.456C421.494 248.859 422.027 248.379 422.689 248.016C423.35 247.653 424.171 247.472 425.153 247.472C426.305 247.472 427.222 247.76 427.905 248.336C428.587 248.912 429.035 249.723 429.249 250.768Z" fill="white"/>
<path d="M449.86 261.936C449.391 262.213 448.74 262.352 447.908 262.352C447.204 262.352 446.639 262.16 446.212 261.776C445.807 261.371 445.604 260.72 445.604 259.824C444.858 260.72 443.983 261.371 442.98 261.776C441.999 262.16 440.932 262.352 439.78 262.352C439.034 262.352 438.319 262.267 437.636 262.096C436.975 261.925 436.399 261.659 435.908 261.296C435.418 260.933 435.023 260.464 434.724 259.888C434.447 259.291 434.308 258.576 434.308 257.744C434.308 256.805 434.468 256.037 434.788 255.44C435.108 254.843 435.524 254.363 436.036 254C436.57 253.616 437.167 253.328 437.828 253.136C438.511 252.944 439.204 252.784 439.908 252.656C440.655 252.507 441.359 252.4 442.02 252.336C442.703 252.251 443.3 252.144 443.812 252.016C444.324 251.867 444.73 251.664 445.028 251.408C445.327 251.131 445.476 250.736 445.476 250.224C445.476 249.627 445.359 249.147 445.124 248.784C444.911 248.421 444.623 248.144 444.26 247.952C443.919 247.76 443.524 247.632 443.076 247.568C442.65 247.504 442.223 247.472 441.796 247.472C440.644 247.472 439.684 247.696 438.916 248.144C438.148 248.571 437.732 249.392 437.668 250.608H434.948C434.991 249.584 435.204 248.72 435.588 248.016C435.972 247.312 436.484 246.747 437.124 246.32C437.764 245.872 438.49 245.552 439.3 245.36C440.132 245.168 441.018 245.072 441.956 245.072C442.703 245.072 443.439 245.125 444.164 245.232C444.911 245.339 445.583 245.563 446.18 245.904C446.778 246.224 447.258 246.683 447.62 247.28C447.983 247.877 448.164 248.656 448.164 249.616V258.128C448.164 258.768 448.196 259.237 448.26 259.536C448.346 259.835 448.602 259.984 449.028 259.984C449.263 259.984 449.54 259.931 449.86 259.824V261.936ZM445.444 253.456C445.103 253.712 444.655 253.904 444.1 254.032C443.546 254.139 442.959 254.235 442.34 254.32C441.743 254.384 441.135 254.469 440.516 254.576C439.898 254.661 439.343 254.811 438.852 255.024C438.362 255.237 437.956 255.547 437.636 255.952C437.338 256.336 437.188 256.869 437.188 257.552C437.188 258 437.274 258.384 437.444 258.704C437.636 259.003 437.871 259.248 438.148 259.44C438.447 259.632 438.788 259.771 439.172 259.856C439.556 259.941 439.962 259.984 440.388 259.984C441.284 259.984 442.052 259.867 442.692 259.632C443.332 259.376 443.855 259.067 444.26 258.704C444.666 258.32 444.964 257.915 445.156 257.488C445.348 257.04 445.444 256.624 445.444 256.24V253.456Z" fill="white"/>
<path d="M452.296 245.456V262H455.016V254.64C455.016 253.573 455.122 252.635 455.336 251.824C455.549 250.992 455.89 250.288 456.36 249.712C456.829 249.136 457.448 248.699 458.216 248.4C458.984 248.101 459.912 247.952 461 247.952V245.072C459.528 245.029 458.312 245.328 457.352 245.968C456.392 246.608 455.581 247.6 454.92 248.944H454.856V245.456H452.296Z" fill="white"/>
<path d="M466.824 245.456V240.496H464.104V245.456H461.288V247.856H464.104V258.384C464.104 259.152 464.179 259.771 464.328 260.24C464.477 260.709 464.701 261.072 465 261.328C465.32 261.584 465.725 261.765 466.216 261.872C466.728 261.957 467.336 262 468.04 262H470.12V259.6H468.872C468.445 259.6 468.093 259.589 467.816 259.568C467.56 259.525 467.357 259.451 467.208 259.344C467.059 259.237 466.952 259.088 466.888 258.896C466.845 258.704 466.824 258.448 466.824 258.128V247.856H470.12V245.456H466.824Z" fill="white"/>
<circle cx="350" cy="164" r="23.5" fill="white" stroke="black" stroke-width="3"/>
<path d="M339 164L349 171.5L361.5 156" stroke="#24AD32" stroke-width="7"/>
</svg>
